<?xml version="1.0" standalone="no"?>
<!DOCTYPE svg PUBLIC "-//W3C//DTD SVG 20010904//EN"
 "http://www.w3.org/TR/2001/REC-SVG-20010904/DTD/svg10.dtd">
<svg version="1.0" xmlns="http://www.w3.org/2000/svg"
 width="500.000000pt" height="500.000000pt" viewBox="0 0 500.000000 500.000000"
 preserveAspectRatio="xMidYMid meet">

<g transform="translate(0.000000,500.000000) scale(0.100000,-0.100000)"
fill="#000000" stroke="none">
<path d="M950 2527 c-6 -87 1 -117 26 -117 16 0 16 1 1 18 -11 12 -17 41 -19
97 l-3 80 -5 -78z"/>
<path d="M1110 2565 c0 -32 -2 -34 -23 -26 -23 9 -55 -1 -69 -23 -14 -21 -8
-73 10 -89 21 -20 58 -22 68 -5 5 8 0 9 -15 5 -43 -11 -67 47 -37 88 12 17 17
18 41 7 23 -11 26 -18 24 -50 -3 -51 -1 -62 11 -62 6 0 10 38 10 95 0 57 -4
95 -10 95 -5 0 -10 -16 -10 -35z"/>
<path d="M1340 2506 c0 -57 4 -96 10 -96 6 0 10 22 10 49 0 95 62 97 68 2 4
-66 22 -67 22 -1 0 63 -26 95 -65 80 -23 -9 -25 -7 -25 20 0 16 -4 32 -10 35
-6 4 -10 -28 -10 -89z"/>
<path d="M4377 2593 c-4 -3 -7 -18 -7 -33 0 -24 -3 -26 -34 -22 -26 3 -37 -1
-50 -19 -20 -29 -20 -58 0 -87 12 -18 24 -22 60 -20 l44 1 0 94 c0 93 -1 99
-13 86z m-19 -75 c20 -20 15 -76 -8 -88 -15 -8 -24 -6 -40 10 -24 24 -26 53
-4 74 19 19 36 20 52 4z"/>
<path d="M618 2584 c-12 -11 -10 -174 2 -174 6 0 10 20 10 45 l0 45 45 0 45 0
0 -45 c0 -25 5 -45 10 -45 6 0 10 37 10 91 0 57 -4 88 -10 84 -5 -3 -10 -22
-10 -41 0 -35 0 -35 -42 -32 -42 3 -43 4 -48 41 -3 22 -8 35 -12 31z"/>
<path d="M1240 2556 c0 -8 -6 -17 -12 -19 -10 -4 -10 -6 0 -6 7 -1 12 -17 12
-45 0 -63 7 -76 42 -76 17 0 27 4 23 10 -3 6 -15 10 -26 10 -16 0 -19 7 -19
49 0 43 3 50 23 54 l22 4 -22 2 c-13 0 -23 8 -23 16 0 8 -4 15 -10 15 -5 0
-10 -6 -10 -14z"/>
<path d="M2560 2556 c0 -8 -8 -17 -17 -19 -16 -4 -16 -5 -1 -6 14 -1 18 -13
20 -58 3 -55 4 -58 31 -61 15 -2 27 2 27 8 0 6 -8 10 -17 8 -15 -2 -19 6 -21
49 -3 47 -1 52 20 56 l23 4 -22 2 c-13 0 -23 8 -23 16 0 8 -4 15 -10 15 -5 0
-10 -6 -10 -14z"/>
<path d="M1713 2539 c-45 -16 -39 -54 11 -67 18 -5 32 -16 34 -27 4 -16 -1
-17 -37 -12 -40 5 -56 -5 -25 -17 27 -10 61 -7 74 9 19 23 7 47 -30 60 -45 15
-47 41 -2 39 17 -1 32 2 32 6 0 12 -34 18 -57 9z"/>
<path d="M2679 2536 c-58 -28 -45 -118 18 -124 41 -4 63 20 63 67 0 53 -37 79
-81 57z m49 -18 c20 -20 15 -76 -8 -88 -15 -8 -24 -6 -40 10 -24 24 -26 53 -4
74 19 19 36 20 52 4z"/>
<path d="M2982 2534 c-13 -9 -23 -10 -27 -4 -3 5 -26 9 -50 8 l-45 -2 0 -63
c0 -35 4 -63 10 -63 6 0 10 19 10 43 0 50 19 83 44 74 12 -5 16 -20 16 -62 0
-30 5 -55 10 -55 6 0 10 15 10 33 0 47 10 75 28 82 24 9 42 -22 42 -72 0 -24
4 -43 9 -43 5 0 7 17 6 38 -1 20 -3 47 -4 59 -1 32 -32 46 -59 27z"/>
<path d="M3602 2537 c-12 -6 -22 -14 -22 -19 0 -11 7 -10 29 4 21 13 55 4 49
-13 -2 -7 -19 -17 -38 -23 -30 -9 -35 -16 -35 -41 0 -24 5 -31 23 -33 13 -2
29 2 37 8 9 7 15 8 20 0 21 -33 26 16 9 96 -4 25 -40 35 -72 21z m58 -71 c0
-19 -29 -48 -44 -43 -6 2 -12 13 -14 25 -3 20 0 21 51 31 4 0 7 -5 7 -13z"/>
<path d="M799 2524 c-19 -23 -15 -85 7 -101 23 -17 68 -17 82 0 21 25 25 66 8
92 -19 29 -75 35 -97 9z m75 -10 c32 -32 8 -89 -35 -82 -19 2 -25 10 -27 36
-5 54 29 80 62 46z"/>
<path d="M1496 2518 c-44 -62 21 -138 84 -98 22 14 5 23 -19 11 -17 -10 -25
-7 -43 11 l-23 23 53 3 c55 3 63 13 42 53 -15 28 -74 26 -94 -3z m72 0 c21
-21 13 -28 -28 -28 -38 0 -40 2 -30 20 12 22 40 26 58 8z"/>
<path d="M1820 2521 c-27 -52 0 -111 52 -111 27 0 56 25 44 37 -4 4 -10 3 -14
-3 -24 -37 -72 -17 -72 30 0 44 22 63 56 47 33 -15 39 -14 24 4 -18 22 -77 19
-90 -4z"/>
<path d="M1950 2473 c0 -35 4 -63 10 -63 6 0 10 22 10 50 0 38 4 52 19 59 10
6 21 8 24 5 3 -3 8 -1 12 5 4 7 -8 10 -34 9 l-41 -1 0 -64z"/>
<path d="M2060 2525 c-6 -8 -12 -30 -12 -50 0 -20 6 -42 12 -50 16 -19 74 -19
90 0 10 12 10 15 -1 15 -8 0 -21 -4 -28 -9 -19 -12 -51 4 -51 24 0 11 12 15
45 15 48 0 56 11 35 51 -13 23 -72 26 -90 4z m68 -7 c20 -20 14 -28 -23 -28
-24 0 -35 5 -35 14 0 24 39 33 58 14z"/>
<path d="M2200 2521 c-15 -29 -12 -77 6 -95 20 -20 68 -21 84 -1 14 16 6 18
-25 6 -24 -10 -55 4 -55 24 0 11 12 15 45 15 40 0 45 2 45 23 0 32 -18 47 -57
47 -22 0 -36 -6 -43 -19z m64 3 c30 -12 18 -34 -19 -34 -37 0 -43 8 -23 28 14
14 20 14 42 6z"/>
<path d="M2340 2473 c0 -75 18 -85 22 -12 6 95 68 93 68 -2 0 -27 5 -49 10
-49 13 0 13 86 0 111 -9 15 -20 19 -55 17 l-45 -1 0 -64z"/>
<path d="M3096 2518 c-33 -46 -7 -108 44 -108 16 0 36 7 44 16 19 18 21 85 4
102 -21 21 -75 15 -92 -10z m72 0 c20 -20 15 -76 -8 -88 -15 -8 -24 -6 -40 10
-24 24 -26 53 -4 74 19 19 36 20 52 4z"/>
<path d="M3236 2518 c18 -57 44 -108 56 -108 7 0 22 24 32 53 10 28 21 58 23
65 3 6 1 12 -5 12 -5 0 -18 -22 -28 -50 -10 -27 -21 -50 -24 -50 -3 0 -13 23
-23 50 -17 49 -46 74 -31 28z"/>
<path d="M3389 2524 c-19 -23 -15 -85 7 -101 24 -17 69 -17 84 1 10 13 5 15
-31 13 -34 -2 -44 2 -47 16 -3 14 4 17 42 17 49 0 57 11 36 51 -13 24 -72 26
-91 3z m69 -6 c20 -20 14 -28 -23 -28 -24 0 -35 5 -35 14 0 24 39 33 58 14z"/>
<path d="M3720 2473 c0 -35 4 -63 10 -63 6 0 10 20 10 44 0 44 22 82 40 71 5
-3 11 -1 15 5 4 6 -9 9 -34 8 l-41 -1 0 -64z"/>
<path d="M3830 2521 c-27 -52 0 -111 52 -111 51 0 75 61 42 108 -20 29 -79 31
-94 3z m81 -15 c23 -50 -13 -98 -55 -74 -19 11 -22 68 -4 86 20 20 48 14 59
-12z"/>
<path d="M3982 2478 l3 -63 48 -1 47 -2 0 64 c0 36 -4 64 -10 64 -5 0 -10 -22
-10 -50 0 -37 -4 -52 -17 -58 -32 -17 -43 -3 -43 54 0 31 -4 54 -10 54 -7 0
-10 -24 -8 -62z"/>
<path d="M4130 2473 c0 -75 18 -85 22 -12 6 95 68 93 68 -2 0 -27 5 -49 10
-49 13 0 13 86 0 111 -9 15 -20 19 -55 17 l-45 -1 0 -64z"/>
</g>
</svg>
